<?xml version="1.0" standalone="no"?><!DOCTYPE svg PUBLIC "-//W3C//DTD SVG 1.1//EN" "http://www.w3.org/Graphics/SVG/1.1/DTD/svg11.dtd">
<svg t="1536141086611" class="icon" style="" viewBox="0 0 1024 1024" version="1.1" 
    xmlns="http://www.w3.org/2000/svg" p-id="3593" 
    xmlns:xlink="http://www.w3.org/1999/xlink" width="25" height="25">
    <defs>
        <style type="text/css"></style>
    </defs>
    <path d="M904.47872 299.93984a31.3344 31.3344 0 0 1-24.27904 11.47904 31.31392 31.31392 0 0 1-31.15008-28.20096c-2.22208-22.31296-15.48288-48.90624-32.256-64.6656-19.31264-18.21696-38.99392-30.1056-77.54752-33.18784a31.32416 31.32416 0 0 1-28.29312-33.64864 31.3344 31.3344 0 0 1 33.28-28.75392c47.89248 3.81952 82.41152 18.80064 115.53792 49.99168 27.67872 26.0096 47.94368 66.87744 51.65056 104.05888a31.24224 31.24224 0 0 1-6.94272 22.92736z m-22.33344 227.71712c0 109.30176-47.0016 207.83104-121.86624 276.52096l73.0624 74.35264a31.26272 31.26272 0 0 1-0.65536 44.01152 31.36512 31.36512 0 0 1-44.07296-0.18432l-78.19264-79.58528a375.7056 375.7056 0 0 1-407.26528 0.86016l-78.1312 78.80704a31.36512 31.36512 0 0 1-44.30848 0.22528 31.26272 31.26272 0 0 1-0.22528-44.2368l72.61184-73.20576c-75.53024-68.68992-123.00288-167.71072-123.00288-277.56544 0-207.07328 168.68352-375.52128 376.02304-375.52128 207.33952 0 376.02304 168.448 376.02304 375.52128z m-376.02304-312.9344c-172.78976 0-313.35424 140.40064-313.35424 312.9344 0 172.55424 140.57472 312.9344 313.35424 312.9344 172.77952 0 313.344-140.3904 313.344-312.9344 0-172.53376-140.55424-312.9344-313.344-312.9344z m-44.62592 538.2656l44.43136-194.60096-118.784-31.30368 145.03936-225.67936-26.29632 176.16896L624.64 508.86656l-163.14368 244.1216z m-187.00288-567.6032c-38.53312 3.08224-58.23488 14.94016-77.52704 33.1264-16.77312 15.80032-30.0544 42.3936-32.24576 64.68608a31.32416 31.32416 0 0 1-34.29376 28.06784 31.29344 31.29344 0 0 1-28.08832-34.23232c3.70688-37.19168 23.98208-78.08 51.6608-104.0896 33.10592-31.17056 67.66592-46.14144 115.5072-49.96096a31.3344 31.3344 0 0 1 33.28 28.74368 31.31392 31.31392 0 0 1-28.29312 33.65888z" fill="#666" p-id="3594"></path>
</svg>